<?xml version="1.0" encoding="utf-8"?>
<!-- Generator: Adobe Illustrator 24.2.3, SVG Export Plug-In . SVG Version: 6.00 Build 0)  -->
<svg version="1.1" id="Layer_1" xmlns="http://www.w3.org/2000/svg" xmlns:xlink="http://www.w3.org/1999/xlink" x="0px" y="0px"
	 viewBox="0 0 96.1 73.8" style="enable-background:new 0 0 96.1 73.8;" xml:space="preserve">
<style type="text/css">
	.st0{fill:#65BE6D;}
</style>
<g>
	<path class="st0" d="M85.8,0.6c0.4-0.4,1-0.6,1.7-0.6s1.3,0.2,1.9,0.6l5.9,6.1c0.6,0.4,0.8,1,0.8,1.7s-0.3,1.3-0.8,1.9L32.3,73.2
		c-0.4,0.4-1,0.6-1.7,0.6s-1.3-0.2-1.9-0.6L0.8,45.1c-0.6-0.4-0.8-1-0.8-1.7c0-0.7,0.3-1.3,0.8-1.9l5.9-5.9c0.6-0.6,1.2-0.8,1.9-0.8
		c0.7,0,1.3,0.3,1.7,0.8L30.6,56L85.8,0.6z"/>
</g>
</svg>
