<?xml version="1.0" encoding="utf-8"?>
<!-- Generator: Adobe Illustrator 24.2.3, SVG Export Plug-In . SVG Version: 6.00 Build 0)  -->
<svg version="1.1" id="Layer_1" xmlns="http://www.w3.org/2000/svg" xmlns:xlink="http://www.w3.org/1999/xlink" x="0px" y="0px"
	 viewBox="0 0 96.1 73.8" style="enable-background:new 0 0 96.1 73.8;" xml:space="preserve">
<style type="text/css">
	.st0{fill:#CC5858;}
</style>
<g>
	<path class="st0" d="M84.2,48.1c-2.2,0-4,1.8-4,4v8.8c0,2.2-1.8,4-4,4h0H19.9c-2.2,0-4-1.8-4-4v-8.8c0-2.2-1.8-4-4-4
		c-2.2,0-4,1.8-4,4v10.1c0,5.9,4.8,10.7,10.7,10.7c0,0,0,0,0,0h58.9c5.9,0,10.7-4.8,10.7-10.7c0,0,0,0,0,0V52.1
		C88.2,49.9,86.4,48.1,84.2,48.1z"/>
	<path class="st0" d="M22.9,28.4l21.9,21.9c1.8,1.8,4.7,1.8,6.5,0c0,0,0,0,0,0l21.9-21.9c2.1-2.1,2.1-5.6,0-7.7c0,0,0,0,0,0
		c-2.1-2.1-5.6-2.1-7.7,0c0,0,0,0,0,0l-12,12l0-26.3c0-3-2.5-5.5-5.5-5.5c-3,0-5.5,2.5-5.5,5.5v26.3l-12-12c-2.1-2.1-5.6-2.1-7.7,0
		C20.7,22.8,20.7,26.3,22.9,28.4C22.9,28.4,22.9,28.4,22.9,28.4z"/>
</g>
</svg>
