<?xml version="1.0" encoding="utf-8"?>
<!-- Generator: Adobe Illustrator 24.2.3, SVG Export Plug-In . SVG Version: 6.00 Build 0)  -->
<svg version="1.1" id="Layer_1" xmlns="http://www.w3.org/2000/svg" xmlns:xlink="http://www.w3.org/1999/xlink" x="0px" y="0px"
	 viewBox="0 0 274 40.6" style="enable-background:new 0 0 274 40.6;" xml:space="preserve">
<style type="text/css">
	.st0{fill:#808080;}
	.st1{font-family:'AvenirNext-BoldItalic';}
	.st2{font-size:12px;}
	.st3{fill:url(#Path_4407_1_);}
	.st4{fill:url(#Path_4408_1_);}
	.st5{fill:url(#Path_4409_1_);}
	.st6{fill:url(#Path_4410_1_);}
	.st7{fill:url(#Path_4411_1_);}
	.st8{fill:url(#Path_4412_1_);}
	.st9{fill:url(#Path_4413_1_);}
	.st10{fill:url(#Path_4414_1_);}
	.st11{fill:url(#Path_4415_1_);}
	.st12{fill:#FFFFFF;}
</style>
<g id="Group_458" transform="translate(-65 -106.05)">
	<text transform="matrix(1 0 0 1 65.0001 116.2978)" class="st0 st1 st2">VIRTUAL</text>
	<g id="Group_457" transform="translate(66.579 125.421)">
		
			<linearGradient id="Path_4407_1_" gradientUnits="userSpaceOnUse" x1="-246.3466" y1="397.5024" x2="-246.3526" y2="398.5018" gradientTransform="matrix(21.9108 0 0 -22.842 5408.6631 9100.8076)">
			<stop  offset="0" style="stop-color:#8A1B25"/>
			<stop  offset="1" style="stop-color:#DB3343"/>
		</linearGradient>
		<path id="Path_4407" class="st3" d="M9.8,21.1c-1.4,0-2.9-0.2-4.2-0.7c-1.2-0.4-2.2-1.1-3.1-2c-0.8-0.9-1.5-2-1.9-3.1
			C0.2,14,0,12.6,0,11.3c0-1.7,0.3-3.4,0.9-5.1c0.5-1.5,1.4-2.9,2.4-4.1C4.4,0.9,5.7,0,7.1-0.7c1.6-0.7,3.2-1,4.9-1
			c1.4,0,2.9,0.2,4.2,0.7c1.2,0.4,2.2,1.1,3.1,2c0.8,0.9,1.5,2,1.9,3.1c0.4,1.3,0.7,2.6,0.6,4c0,1.7-0.3,3.4-0.9,5.1
			c-0.5,1.5-1.4,2.9-2.4,4.1c-1.1,1.2-2.4,2.1-3.8,2.8C13.2,20.8,11.5,21.2,9.8,21.1z M15.2,8.7c0-0.5-0.1-1-0.2-1.5
			c-0.1-0.5-0.4-0.9-0.7-1.3c-0.3-0.4-0.7-0.7-1.1-0.8c-0.5-0.2-1-0.3-1.6-0.3c-0.7,0-1.4,0.2-2,0.5C8.9,5.6,8.4,6.1,8,6.6
			c-0.4,0.6-0.7,1.2-1,1.9c-0.2,0.7-0.3,1.4-0.3,2.2c0,0.5,0.1,1,0.2,1.5c0.1,0.5,0.4,0.9,0.7,1.3c0.3,0.4,0.7,0.7,1.1,0.8
			c0.5,0.2,1,0.3,1.6,0.3c0.7,0,1.4-0.2,2-0.5c0.6-0.3,1.1-0.8,1.5-1.3c0.4-0.6,0.7-1.2,1-1.9C15,10.2,15.2,9.5,15.2,8.7L15.2,8.7z"
			/>
		
			<linearGradient id="Path_4408_1_" gradientUnits="userSpaceOnUse" x1="-244.4078" y1="396.7206" x2="-244.4138" y2="397.7206" gradientTransform="matrix(18.8015 0 0 -21.7532 4627.3364 8650.4502)">
			<stop  offset="0" style="stop-color:#8A1B25"/>
			<stop  offset="1" style="stop-color:#DB3343"/>
		</linearGradient>
		<path id="Path_4408" class="st4" d="M29.1,20.6h-6.4l3.5-21.7h7.4c2.1-0.1,4.2,0.5,5.9,1.8c1.4,1.2,2.1,3,2,4.8
			c0,1.2-0.2,2.5-0.6,3.6c-0.4,1-1,1.8-1.8,2.5c-0.9,0.7-1.9,1.2-2.9,1.5c-1.3,0.3-2.6,0.5-3.9,0.5h-1.9L29.1,20.6z M32.2,8.2
			c0.7,0,1.5-0.1,2.1-0.5c0.5-0.3,0.8-0.9,0.8-1.5c0.1-0.5-0.2-1-0.6-1.4c-0.5-0.3-1.1-0.4-1.7-0.4h-1l-0.6,3.7L32.2,8.2z"/>
		
			<linearGradient id="Path_4409_1_" gradientUnits="userSpaceOnUse" x1="-242.4709" y1="396.7054" x2="-242.4769" y2="397.7054" gradientTransform="matrix(16.469 0 0 -21.733 4043.2422 8642.1035)">
			<stop  offset="0" style="stop-color:#8A1B25"/>
			<stop  offset="1" style="stop-color:#DB3343"/>
		</linearGradient>
		<path id="Path_4409" class="st5" d="M41.7,20.6l3.5-21.7h13l-1,5.9h-6.9L50,6.9h6.6l-0.9,5.5h-6.6l-0.4,2.3h7.7l-1,5.9H41.7z"/>
		
			<linearGradient id="Path_4410_1_" gradientUnits="userSpaceOnUse" x1="-246.3409" y1="396.7054" x2="-246.3469" y2="397.7054" gradientTransform="matrix(21.9001 0 0 -21.733 5464.208 8642.1035)">
			<stop  offset="0" style="stop-color:#8A1B25"/>
			<stop  offset="1" style="stop-color:#DB3343"/>
		</linearGradient>
		<path id="Path_4410" class="st6" d="M70.2,20.6L66.2,9.8h-0.1l-1.5,10.8h-6.3l3.5-21.7h6.4l4,11.3h0.1l1.6-11.3h6.3l-3.5,21.7
			H70.2z"/>
		
			<linearGradient id="Path_4411_1_" gradientUnits="userSpaceOnUse" x1="-246.4471" y1="396.7054" x2="-246.453" y2="397.7054" gradientTransform="matrix(22.1 0 0 -21.733 5545.0347 8642.1035)">
			<stop  offset="0" style="stop-color:#8A1B25"/>
			<stop  offset="1" style="stop-color:#DB3343"/>
		</linearGradient>
		<path id="Path_4411" class="st7" d="M99.6,20.6l1.3-8.4h-5.7l-1.3,8.4h-6.5l3.5-21.7h6.4l-1.2,7.5h5.7l1.2-7.5h6.5L106,20.6H99.6z
			"/>
		
			<linearGradient id="Path_4412_1_" gradientUnits="userSpaceOnUse" x1="-246.3466" y1="397.5024" x2="-246.3526" y2="398.5018" gradientTransform="matrix(21.9108 0 0 -22.842 5519.1333 9100.8076)">
			<stop  offset="0" style="stop-color:#8A1B25"/>
			<stop  offset="1" style="stop-color:#DB3343"/>
		</linearGradient>
		<path id="Path_4412" class="st8" d="M120.3,21.1c-1.4,0-2.9-0.2-4.2-0.7c-1.2-0.4-2.2-1.1-3.1-2c-0.8-0.9-1.5-2-1.9-3.1
			c-0.4-1.3-0.7-2.6-0.6-4c0-1.7,0.3-3.4,0.9-5.1c0.5-1.5,1.4-2.9,2.4-4.1c1.1-1.2,2.4-2.1,3.8-2.8c1.6-0.7,3.2-1,4.9-1
			c1.4,0,2.9,0.2,4.2,0.7c1.2,0.4,2.2,1.1,3.1,2c0.8,0.9,1.5,2,1.9,3.1c0.4,1.3,0.7,2.6,0.6,4c0,1.7-0.3,3.4-0.9,5.1
			c-0.5,1.5-1.4,2.9-2.4,4.1c-1.1,1.2-2.4,2.1-3.8,2.8C123.7,20.8,122,21.2,120.3,21.1z M125.6,8.7c0-0.5-0.1-1-0.2-1.5
			c-0.1-0.5-0.4-0.9-0.7-1.3c-0.3-0.4-0.7-0.7-1.1-0.8c-0.5-0.2-1-0.3-1.6-0.3c-0.7,0-1.4,0.2-2,0.5c-0.6,0.3-1.1,0.8-1.5,1.3
			c-0.4,0.6-0.7,1.2-1,1.9c-0.2,0.7-0.3,1.4-0.3,2.2c0,0.5,0.1,1,0.2,1.5c0.1,0.5,0.4,0.9,0.7,1.3c0.3,0.4,0.7,0.7,1.1,0.8
			c0.5,0.2,1,0.3,1.6,0.3c0.7,0,1.4-0.2,2-0.5c0.6-0.3,1.1-0.8,1.5-1.3c0.4-0.6,0.7-1.2,1-1.9C125.5,10.2,125.6,9.5,125.6,8.7
			L125.6,8.7z"/>
		
			<linearGradient id="Path_4413_1_" gradientUnits="userSpaceOnUse" x1="-245.5532" y1="397.1168" x2="-245.5592" y2="398.1168" gradientTransform="matrix(20.524 0 0 -22.2917 5184.1416 8873.4775)">
			<stop  offset="0" style="stop-color:#8A1B25"/>
			<stop  offset="1" style="stop-color:#DB3343"/>
		</linearGradient>
		<path id="Path_4413" class="st9" d="M151.4,16.1c-0.5,1-1.1,1.9-2,2.7c-0.9,0.8-1.8,1.3-2.9,1.7c-1.3,0.4-2.6,0.6-3.9,0.6
			c-1.2,0-2.3-0.1-3.5-0.5c-1-0.3-1.9-0.7-2.7-1.3c-0.7-0.6-1.3-1.3-1.7-2.1c-0.4-0.9-0.6-1.9-0.6-2.9c0-0.3,0-0.6,0.1-1
			c0-0.4,0.1-0.7,0.1-1l2.1-13.5h6.4l-2,12.6c0,0.2-0.1,0.3-0.1,0.5v0.5c0,0.6,0.2,1.3,0.6,1.8c0.5,0.6,1.2,0.8,1.9,0.8
			c0.5,0,1-0.1,1.4-0.3c0.4-0.2,0.7-0.5,0.9-0.8c0.2-0.3,0.4-0.7,0.5-1.1c0.1-0.4,0.2-0.8,0.3-1.2l2.1-12.7h6.3l-2.2,13.8
			C152.2,13.8,151.9,15,151.4,16.1z"/>
		
			<linearGradient id="Path_4414_1_" gradientUnits="userSpaceOnUse" x1="-244.4232" y1="397.5844" x2="-244.4293" y2="398.5844" gradientTransform="matrix(18.8241 0 0 -22.9626 4763.6108 9150.7031)">
			<stop  offset="0" style="stop-color:#8A1B25"/>
			<stop  offset="1" style="stop-color:#DB3343"/>
		</linearGradient>
		<path id="Path_4414" class="st10" d="M167.8,5.3c-0.3-0.4-0.8-0.8-1.2-1c-0.5-0.3-1.2-0.4-1.8-0.4c-0.5,0-1,0.1-1.4,0.4
			c-0.4,0.2-0.7,0.7-0.6,1.1c0,0.4,0.2,0.8,0.5,1c0.5,0.3,1,0.5,1.6,0.7c0.8,0.3,1.6,0.6,2.3,1c0.6,0.4,1.2,0.8,1.7,1.4
			c0.5,0.5,0.8,1.1,1.1,1.8c0.3,0.7,0.4,1.5,0.4,2.2c0,1.2-0.3,2.5-0.8,3.6c-0.5,0.9-1.3,1.8-2.1,2.4c-0.9,0.6-1.8,1.1-2.9,1.4
			c-1,0.3-2,0.4-3,0.4c-0.8,0-1.6-0.1-2.4-0.2c-0.8-0.1-1.5-0.3-2.3-0.6c-0.7-0.3-1.4-0.6-2-1c-0.6-0.4-1.2-0.8-1.7-1.3l4.4-4.5
			c0.2,0.3,0.5,0.6,0.8,0.8c0.3,0.2,0.6,0.4,1,0.6c0.3,0.2,0.7,0.3,1.1,0.4c0.3,0.1,0.6,0.1,1,0.1c0.5,0,1.1-0.1,1.6-0.4
			c0.4-0.2,0.6-0.6,0.6-1c0-0.4-0.2-0.7-0.5-1c-0.6-0.4-1.2-0.7-1.8-0.9c-0.7-0.2-1.4-0.5-2-0.9c-0.6-0.3-1.1-0.7-1.6-1.2
			c-0.5-0.5-0.8-1-1.1-1.7c-0.3-0.8-0.4-1.5-0.4-2.3c0-1.1,0.2-2.1,0.6-3.1c0.4-1,1-1.8,1.8-2.5c0.8-0.7,1.8-1.3,2.8-1.7
			c1.1-0.4,2.3-0.6,3.5-0.6c0.7,0,1.4,0.1,2.1,0.2c0.7,0.1,1.3,0.3,2,0.6c0.6,0.2,1.2,0.5,1.7,0.8c0.5,0.3,0.9,0.7,1.3,1.1
			L167.8,5.3z"/>
		
			<linearGradient id="Path_4415_1_" gradientUnits="userSpaceOnUse" x1="-242.47" y1="396.7054" x2="-242.476" y2="397.7054" gradientTransform="matrix(16.468 0 0 -21.733 4172.8418 8642.1035)">
			<stop  offset="0" style="stop-color:#8A1B25"/>
			<stop  offset="1" style="stop-color:#DB3343"/>
		</linearGradient>
		<path id="Path_4415" class="st11" d="M171.6,20.6l3.5-21.7h13l-1,5.9h-6.9l-0.3,2.1h6.6l-0.9,5.5H179l-0.4,2.3h7.7l-1,5.9H171.6z"
			/>
		<path id="Path_4416" class="st12" d="M195.1,20.6L196,15l9-6.9c0.4-0.3,0.7-0.6,1-1c0.6-0.6,0.7-1.5,0.2-2.2
			c-0.3-0.3-0.7-0.5-1.1-0.4c-0.6,0-1.2,0.2-1.6,0.7c-0.4,0.5-0.7,1.2-0.9,1.9l-6-1c0.2-1.1,0.6-2.2,1.2-3.2c0.5-0.9,1.2-1.8,2-2.5
			c0.8-0.7,1.7-1.2,2.6-1.6c1-0.4,2.1-0.6,3.2-0.6c0.9,0,1.9,0.1,2.8,0.4c0.9,0.2,1.7,0.6,2.5,1.1c0.7,0.5,1.3,1.2,1.8,2
			c0.5,0.9,0.7,1.9,0.7,3c0,0.9-0.1,1.8-0.4,2.6c-0.3,0.7-0.6,1.4-1.1,2c-0.4,0.6-1,1.1-1.5,1.5c-0.6,0.4-1.1,0.9-1.7,1.3l-3.4,2.5
			h7.1l-1,6L195.1,20.6z"/>
		<path id="Path_4417" class="st12" d="M225.6-1.7c1.3,0,2.6,0.2,3.7,0.7c1,0.4,1.8,1.1,2.5,1.9c0.6,0.8,1.1,1.7,1.3,2.7
			c0.3,1,0.4,2,0.4,3c0,1.1-0.1,2.1-0.2,3.2c-0.2,1.1-0.4,2.2-0.7,3.3c-0.3,1.1-0.8,2.1-1.3,3.1c-0.5,0.9-1.2,1.8-1.9,2.6
			c-1.6,1.6-3.8,2.4-6,2.4c-1.3,0-2.6-0.2-3.8-0.7c-1-0.4-1.8-1.1-2.5-1.9c-0.6-0.8-1.1-1.7-1.4-2.7c-0.3-1-0.4-2-0.4-3
			c0-1.1,0.1-2.1,0.2-3.2c0.2-1.1,0.4-2.2,0.8-3.3c0.3-1.1,0.8-2.1,1.3-3.1c0.5-0.9,1.2-1.8,2-2.6C221.1-0.9,223.3-1.7,225.6-1.7
			L225.6-1.7z M225,4.2c-0.6,0-1.1,0.3-1.5,0.8c-0.5,0.6-0.8,1.2-1.1,1.9c-0.3,0.8-0.5,1.7-0.7,2.5c-0.1,0.8-0.2,1.7-0.2,2.6
			c0,0.8,0.1,1.6,0.5,2.3c0.2,0.6,0.8,1,1.4,0.9c0.6,0,1.1-0.3,1.4-0.7c0.5-0.6,0.8-1.2,1.1-1.8c0.3-0.8,0.5-1.6,0.7-2.5
			c0.1-0.9,0.2-1.8,0.2-2.7c0-0.8-0.1-1.6-0.4-2.3C226.2,4.6,225.7,4.2,225,4.2L225,4.2z"/>
		<path id="Path_4418" class="st12" d="M234,20.6L235,15l9-6.9c0.4-0.3,0.7-0.6,1-1c0.6-0.6,0.7-1.5,0.2-2.2
			c-0.3-0.3-0.7-0.5-1.1-0.4c-0.6,0-1.2,0.2-1.6,0.7c-0.4,0.5-0.7,1.2-0.9,1.9l-6-1c0.2-1.1,0.6-2.2,1.2-3.2c0.5-0.9,1.2-1.8,2-2.5
			c0.8-0.7,1.7-1.2,2.6-1.6c1-0.4,2.1-0.6,3.2-0.6c0.9,0,1.9,0.1,2.8,0.4c0.9,0.2,1.7,0.6,2.5,1.1c0.7,0.5,1.3,1.2,1.8,2
			c0.5,0.9,0.7,1.9,0.7,3c0,0.9-0.1,1.8-0.4,2.6c-0.3,0.7-0.6,1.4-1.1,2c-0.4,0.6-1,1.1-1.5,1.5c-0.6,0.4-1.1,0.9-1.7,1.3l-3.4,2.5
			h7.1l-1,6L234,20.6z"/>
		<path id="Path_4419" class="st12" d="M264.5-1.7c1.3,0,2.6,0.2,3.7,0.7c1,0.4,1.8,1.1,2.5,1.9c0.6,0.8,1.1,1.7,1.3,2.7
			c0.3,1,0.4,2,0.4,3c0,1.1-0.1,2.1-0.2,3.2c-0.2,1.1-0.4,2.2-0.7,3.3c-0.3,1.1-0.8,2.1-1.3,3.1c-0.5,0.9-1.2,1.8-1.9,2.6
			c-1.6,1.6-3.8,2.4-6,2.4c-1.3,0-2.6-0.2-3.8-0.7c-1-0.4-1.8-1.1-2.5-1.9c-0.6-0.8-1.1-1.7-1.4-2.7c-0.3-1-0.4-2-0.4-3
			c0-1.1,0.1-2.1,0.2-3.2c0.2-1.1,0.4-2.2,0.8-3.3c0.3-1.1,0.8-2.1,1.3-3.1c0.5-0.9,1.2-1.8,2-2.6C260-0.9,262.2-1.7,264.5-1.7
			L264.5-1.7z M264,4.2c-0.6,0-1.1,0.3-1.5,0.8c-0.5,0.6-0.8,1.2-1.1,1.9c-0.3,0.8-0.5,1.7-0.7,2.5c-0.1,0.8-0.2,1.7-0.2,2.6
			c0,0.8,0.1,1.6,0.5,2.3c0.2,0.6,0.8,1,1.4,0.9c0.6,0,1.1-0.3,1.4-0.7c0.5-0.6,0.8-1.2,1.1-1.8c0.3-0.8,0.5-1.6,0.7-2.5
			c0.1-0.9,0.2-1.8,0.2-2.7c0-0.8-0.1-1.6-0.4-2.3C265.2,4.6,264.6,4.2,264,4.2L264,4.2z"/>
	</g>
</g>
</svg>
